<svg width="1436" height="662" viewBox="0 0 1436 662" fill="none" xmlns="http://www.w3.org/2000/svg">
<rect x="-4" width="1440" height="662" fill="url(#paint0_linear_2_229)"/>
<mask id="mask0_2_229" style="mask-type:alpha" maskUnits="userSpaceOnUse" x="-4" y="0" width="1440" height="662">
<rect x="-4" width="1440" height="662" fill="url(#paint1_linear_2_229)"/>
</mask>
<g mask="url(#mask0_2_229)">
<path fill-rule="evenodd" clip-rule="evenodd" d="M1453 337C1453 532.509 1294.51 691 1099 691C903.491 691 745 532.509 745 337C745 141.491 903.491 -17 1099 -17C1294.51 -17 1453 141.491 1453 337ZM1488 337C1488 551.839 1313.84 726 1099 726C884.161 726 710 551.839 710 337C710 122.161 884.161 -52 1099 -52C1313.84 -52 1488 122.161 1488 337ZM1099 631.399C1261.59 631.399 1393.4 499.592 1393.4 337C1393.4 174.408 1261.59 42.6006 1099 42.6006C936.407 42.6006 804.6 174.408 804.6 337C804.6 499.592 936.407 631.399 1099 631.399ZM1099 666.399C1280.92 666.399 1428.4 518.922 1428.4 337C1428.4 155.078 1280.92 7.60059 1099 7.60059C917.077 7.60059 769.6 155.078 769.6 337C769.6 518.922 917.077 666.399 1099 666.399ZM1333.8 337C1333.8 466.676 1228.68 571.799 1099 571.799C969.324 571.799 864.201 466.676 864.201 337C864.201 207.324 969.324 102.201 1099 102.201C1228.68 102.201 1333.8 207.324 1333.8 337ZM1368.8 337C1368.8 486.006 1248.01 606.799 1099 606.799C949.994 606.799 829.201 486.006 829.201 337C829.201 187.994 949.994 67.2011 1099 67.2011C1248.01 67.2011 1368.8 187.994 1368.8 337ZM1274.2 337C1274.2 433.759 1195.76 512.198 1099 512.198C1002.24 512.198 923.801 433.759 923.801 337C923.801 240.241 1002.24 161.802 1099 161.802C1195.76 161.802 1274.2 240.241 1274.2 337ZM1309.2 337C1309.2 453.089 1215.09 547.198 1099 547.198C982.91 547.198 888.801 453.089 888.801 337C888.801 220.911 982.91 126.802 1099 126.802C1215.09 126.802 1309.2 220.911 1309.2 337ZM1099 452.598C1162.84 452.598 1214.6 400.843 1214.6 337C1214.6 273.157 1162.84 221.402 1099 221.402C1035.16 221.402 983.402 273.157 983.402 337C983.402 400.843 1035.16 452.598 1099 452.598ZM1099 487.598C1182.17 487.598 1249.6 420.173 1249.6 337C1249.6 253.827 1182.17 186.402 1099 186.402C1015.83 186.402 948.402 253.827 948.402 337C948.402 420.173 1015.83 487.598 1099 487.598ZM1155 337C1155 367.926 1129.93 392.997 1099 392.997C1068.07 392.997 1043 367.926 1043 337C1043 306.074 1068.07 281.003 1099 281.003C1129.93 281.003 1155 306.074 1155 337ZM1190 337C1190 387.256 1149.26 427.997 1099 427.997C1048.74 427.997 1008 387.256 1008 337C1008 286.744 1048.74 246.003 1099 246.003C1149.26 246.003 1190 286.744 1190 337Z" fill="url(#paint2_linear_2_229)"/>
</g>
<defs>
<linearGradient id="paint0_linear_2_229" x1="716" y1="0" x2="716" y2="662" gradientUnits="userSpaceOnUse">
<stop stop-color="#02B5EA"/>
<stop offset="1" stop-color="#02B5EA" stop-opacity="0.15"/>
</linearGradient>
<linearGradient id="paint1_linear_2_229" x1="716" y1="0" x2="716" y2="662" gradientUnits="userSpaceOnUse">
<stop stop-color="#02B5EA"/>
<stop offset="1" stop-color="#02B5EA" stop-opacity="0.15"/>
</linearGradient>
<linearGradient id="paint2_linear_2_229" x1="1099" y1="-52" x2="1099" y2="726" gradientUnits="userSpaceOnUse">
<stop stop-color="#02B5EA"/>
<stop offset="1" stop-color="#02B5EA" stop-opacity="0.15"/>
</linearGradient>
</defs>
</svg>
